<?xml version="1.0"?>
<svg width="24" height="24" xmlns="http://www.w3.org/2000/svg" xmlns:svg="http://www.w3.org/2000/svg">
 <g class="layer">
  <title>Layer 1</title>
  <path d="m7.11,15.21a3,3 0 1 1 -2.11,-0.04l0,-6.34a3,3 0 1 1 2,0l0,3.17c0.84,-0.63 1.87,-1 3,-1l4,0a3,3 0 0 0 2.89,-2.21a3,3 0 1 1 2.04,0.06a5,5 0 0 1 -4.93,4.15l-4,0a3,3 0 0 0 -2.89,2.21zm-1.11,1.79a1,1 0 1 0 0,2a1,1 0 0 0 0,-2zm0,-12a1,1 0 1 0 0,2a1,1 0 0 0 0,-2zm12,0a1,1 0 1 0 0,2a1,1 0 0 0 0,-2z" fill="#135d66" id="svg_2"/>
 </g>
</svg>